<?xml version="1.0" encoding="UTF-8" standalone="no"?>
<svg
   xmlns="http://www.w3.org/2000/svg"
   id="svg54"
   version="1.1"
   viewBox="0 0 10.583333 10.583333"
   height="40"
   width="40">
  <defs
     id="defs48" />
  <g
     id="layer1">
    <g
       style="opacity:1"
       transform="matrix(0.02180287,0,0,0.02180287,0.17468536,0.30862653)"
       id="g123">
      <g
         id="g64">
	<g
   id="g62">
		<path
   d="m 330.122,61.284 c 1.241,-1.414 2.23,-2.908 2.604,-4.564 h 0.131 v -0.527 c 0.065,-0.453 0.312,-0.877 0.312,-1.356 h -0.312 v -8.692 c 4.396,-3.505 7.197,-7.29 8.635,-11.299 3.351,-2.572 5.413,-5.486 5.413,-8.907 C 346.904,1.244 247.019,0 226.998,0 206.974,0 107.091,1.249 107.091,25.938 c 0,4.324 3.192,7.895 8.364,10.905 1.25,2.508 3.125,4.966 5.609,7.288 v 12.594 h 0.588 c 0.324,1.433 1.045,2.749 2.016,3.995 -19.891,13.745 -40.071,30.338 -40.071,41.138 v 290.42 c 0,29.926 21.31,61.718 60.803,61.718 h 159.735 c 41.48,0 66.263,-24.097 66.263,-64.434 V 107.306 c 0,-14.473 -24.483,-34.548 -40.276,-46.022 z M 100.17896,211.77851 c 21.114,5.479 72.94004,14.84949 133.09104,14.84949 40.828,0 81.7177,-2.86993 119.8717,-20.11193 l 0.0934,97.98324 c -92.838,45.91 -226.0432,12.95977 -254.087202,5.57077 z M 297.732,57.349 l -3.40696,2.26126 c -5.021,0.945 -4.88237,2.033671 -11.51937,2.827671 l -2.13674,-5.078462 H 267.396 l -2.3656,4.01802 c -4.63,0.382 -6.83601,3.817571 -12.04501,4.056571 l 3.90711,-8.155792 -17.55927,0.08126 -2.50177,7.302251 c -4.093,0.084 -5.25046,-0.350745 -9.63346,-0.350745 -1.715,0 -2.88674,1.784706 -4.55074,1.770706 l 4.3e-4,-8.722212 -13.25169,0.0015 -0.0212,8.341509 c -7.636,-0.245 -12.74191,-2.505201 -19.25491,-3.033201 L 188.058,57.36 h -12.965 l -2.00762,4.007477 c -6.553,-0.745 -9.70364,0.480267 -14.71664,-0.422733 L 158.13575,57.325367 144.841,57.351 v 0 c -1.645,-0.469 -1.91291,0.08593 -3.19491,-0.386067 l 170.65788,-0.05654 c -0.989,0.353 -0.39397,0.07061 -1.60797,0.441606 v 0 H 297.732 Z M 134.029,43.759 v -0.131 c 0.177,0.044 0.383,0.082 0.569,0.131 z m 185.358,0 c 0.149,-0.049 0.336,-0.072 0.504,-0.117 v 0.117 z M 125.47991,25.933 c 8.636,-5.066 39.94654,-11.611657 101.25354,-11.611657 61.288,0 93.5932,6.828745 102.2182,11.889745 -8.625,5.066 -41.01197,9.158528 -102.29997,9.158528 -61.307,0 -92.53577,-4.377616 -101.17177,-9.436616 z m 13.4076,47.748698 c 26.189,9.514 75.32249,8.435298 88.30649,8.435298 12.834,0 62.65779,-2.350352 89.07379,-11.581352 21.469,14.872 39.00735,35.875046 39.00735,35.875046 -4.5752,25.08709 -13.14366,77.78331 -3.09907,77.18646 -97.63829,33.65563 -218.87301,12.64377 -247.5114,8.31015 l -2.172,-90.19039 c 1.424,-4.857996 16.24684,-14.491212 36.39484,-28.035212 z m 163.08452,351.998212 -157.49865,-0.1306 c -33.95099,-0.0281 -35.02147,-13.58584 -35.02147,-32.56184 l -1.92369,-57.96218 c 21.144,5.479 65.07347,17.96052 125.20647,17.96052 40.828,0 71.83292,1.37118 109.98692,-15.87382 l -5.04261,61.83567 c 0.004,41.246 -12.10998,26.75181 -35.70697,26.73225 z"
   id="path56" />

		<path
   d="m 120.80024,122.77655 c 2.705,0.892 48.4057,18.50965 108.1167,18.50965 30.756,0 65.94274,-4.60729 102.08374,-15.82229 3.827,-1.19 8.6502,-10.57718 7.4642,-14.40418 -1.186,-3.815 -6.99294,-8.46876 -10.90494,-7.26176 -101.649,31.536 -200.23509,0.85583 -201.18709,0.53083 -3.79,-1.291 -15.55819,4.83346 -12.83911,8.80707 -1.276,3.809 3.4675,8.36068 7.2665,9.64068 z"
   id="path58" />

		
	</g>

</g>
      <g
         id="g66">
</g>
      <g
         id="g68">
</g>
      <g
         id="g70">
</g>
      <g
         id="g72">
</g>
      <g
         id="g74">
</g>
      <g
         id="g76">
</g>
      <g
         id="g78">
</g>
      <g
         id="g80">
</g>
      <g
         id="g82">
</g>
      <g
         id="g84">
</g>
      <g
         id="g86">
</g>
      <g
         id="g88">
</g>
      <g
         id="g90">
</g>
      <g
         id="g92">
</g>
      <g
         id="g94">
</g>
    </g>
    <path
       transform="scale(0.26458333)"
       id="path125"
       d="M 18.034528,18.543895 C 15.451572,18.404753 12.714162,18.016704 9.9690914,17.400556 L 8.7853189,17.134851 V 13.319343 9.5038338 L 9.211477,9.0797681 C 9.6829216,8.6106383 10.616662,7.8533283 11.430495,7.2800333 l 0.53017,-0.3734715 0.385281,0.1086896 c 3.194681,0.901234 10.509254,0.9377414 13.79246,0.068839 l 0.590867,-0.1563735 0.324583,0.2344488 c 1.08806,0.7859137 2.300327,1.8754705 2.683154,2.4115539 l 0.198378,0.2777945 v 3.3877489 3.387748 l -0.710264,0.300962 c -1.909423,0.809085 -4.138629,1.331165 -6.613342,1.548844 -1.07594,0.09464 -3.42622,0.129084 -4.577254,0.06708 z m 2.99889,-6.187004 c 2.068194,-0.113541 4.140781,-0.434711 5.910768,-0.915939 1.262889,-0.343357 1.349704,-0.40046 1.349704,-0.887775 0,-0.200294 -0.04014,-0.301588 -0.17161,-0.433058 -0.222872,-0.2228719 -0.393949,-0.2068995 -1.864878,0.174111 -2.214615,0.573645 -4.19865,0.811147 -6.77078,0.810506 -2.740733,-6.84e-4 -5.709542,-0.375729 -7.823513,-0.988334 -0.69041,-0.2000732 -0.92606,-0.2011339 -1.153853,-0.0052 -0.243902,0.209795 -0.253553,0.652597 -0.01931,0.885725 0.398671,0.396765 3.953275,1.11198 6.439723,1.295723 1.854378,0.137035 2.572817,0.148281 4.103744,0.06424 z"
       style="opacity:1;fill:#ff2a2a;stroke-width:0.0631345" />
    <path
       transform="scale(0.26458333)"
       id="path127"
       d="M 11.973613,37.316194 C 10.560298,37.121221 9.4959537,36.197819 8.9668333,34.707575 8.8238108,34.304759 8.8207344,34.24216 8.7997979,31.308753 c -0.020389,-2.856717 -0.016308,-2.986892 0.092581,-2.953138 0.2939118,0.09111 1.5480041,0.366707 2.5788661,0.56673 6.795667,1.318592 13.132063,1.081349 17.580259,-0.658228 0.364602,-0.142587 0.714085,-0.274797 0.77663,-0.293801 0.108675,-0.03302 0.112834,0.10786 0.09382,3.177733 l -0.0199,3.212286 -0.173638,0.515013 c -0.413345,1.225988 -1.188074,1.930416 -2.539383,2.308952 l -0.505077,0.141485 -7.260471,0.0083 c -3.993259,0.0045 -7.345703,-0.0035 -7.449875,-0.01786 z"
       style="opacity:1;fill:#ff5555;stroke-width:0.0631345" />
    <path
       transform="scale(0.26458333)"
       id="path129"
       d="M 17.750423,18.501385 C 16.314363,18.417052 13.764285,18.100759 12.194584,17.81228 11.312954,17.650254 9.4376638,17.258844 9.0220734,17.150115 L 8.7853189,17.088173 V 13.307805 9.5274382 L 9.2746115,9.0740453 C 9.853574,8.5375615 10.638531,7.90155 11.405927,7.3471453 l 0.554548,-0.4006323 0.579981,0.1472729 c 1.694645,0.4303163 3.731035,0.6138986 6.851465,0.6176655 3.035922,0.00367 4.900615,-0.1564387 6.648213,-0.5708191 L 26.722133,6.9789204 26.9644,7.1468115 c 0.943404,0.6537794 2.478816,2.0429485 2.808277,2.5407991 l 0.163839,0.247577 -0.01635,3.3401914 -0.01635,3.340191 -0.915451,0.360878 c -2.853471,1.124863 -5.668004,1.585796 -9.501748,1.556091 -0.763927,-0.0059 -1.545217,-0.01994 -1.736199,-0.03115 z m 3.756505,-6.145318 c 2.117069,-0.1545 4.334072,-0.539927 6.016484,-1.045969 0.658472,-0.198057 0.770478,-0.30313 0.770478,-0.722785 0,-0.254026 -0.03139,-0.349928 -0.154967,-0.473509 -0.213372,-0.2133715 -0.484884,-0.2021393 -1.540656,0.06374 -1.170198,0.294691 -2.590918,0.573467 -3.524085,0.691501 -3.352052,0.423992 -7.670279,0.161272 -10.931576,-0.665076 -0.999746,-0.2533161 -1.422268,-0.2968138 -1.594991,-0.164201 -0.249844,0.191824 -0.32781,0.659585 -0.15182,0.910847 0.308802,0.440876 3.934226,1.181111 6.849551,1.398532 1.048894,0.07822 3.235874,0.08178 4.261582,0.0069 z"
       style="opacity:1;fill:#ff5555;stroke-width:0.0631345" />
    <path
       transform="scale(0.26458333)"
       id="path131"
       d="m 18.73282,18.563694 c -0.682748,-0.01577 -1.5136,-0.06936 -2.519531,-0.162525 -0.199233,-0.01845 -0.265067,-0.0282 -0.265067,-0.03923 0,-0.0182 -0.02874,-0.01954 0.273438,0.01277 0.699142,0.07475 1.344174,0.12522 1.793509,0.140339 0.556744,0.01873 2.271774,0.02614 2.776803,0.01199 2.455951,-0.06881 4.319728,-0.330525 6.222034,-0.87371 0.769587,-0.219749 1.313054,-0.410106 2.431087,-0.851522 0.244428,-0.09651 0.446617,-0.173261 0.449309,-0.170569 0.0062,0.0062 -0.805411,0.349475 -1.089791,0.461026 -1.634717,0.641234 -3.478481,1.07929 -5.512639,1.309736 -0.727329,0.0824 -1.226776,0.11561 -2.204241,0.146578 -0.353089,0.01119 -2.052752,0.0221 -2.354911,0.01512 z"
       style="opacity:1;fill:#ff5555;stroke-width:0.0111607" />
    <path
       transform="scale(0.26458333)"
       id="path133"
       d=""
       style="opacity:1;fill:#ff5555;stroke-width:0.0111607" />
    <path
       transform="scale(0.26458333)"
       id="path135"
       d=""
       style="opacity:1;fill:#ff5555;stroke-width:0.00558036" />
    <path
       transform="scale(0.26458333)"
       id="path137"
       d=""
       style="opacity:1;fill:#ff5555;stroke-width:0.00558036" />
    <path
       transform="scale(0.26458333)"
       id="path141"
       d="M 17.781879,28.432861 C 14.748371,28.20268 12.310764,27.849497 10.005165,27.306097 9.5042327,27.188034 9.017035,27.075044 8.9225037,27.055009 l -0.171875,-0.03643 v -4.298754 -4.298754 l 0.328125,0.08407 c 1.5393533,0.394381 4.3510633,0.891733 6.1406253,1.08619 1.871707,0.203384 2.812617,0.254874 4.65625,0.254811 3.769465,-1.31e-4 6.765684,-0.50521 9.473996,-1.597051 0.293157,-0.118185 0.545497,-0.214882 0.560758,-0.214882 0.01526,0 0.02775,1.909438 0.02775,4.243196 V 26.5206 l -0.591272,0.259312 c -1.750788,0.767836 -3.753311,1.271036 -6.142438,1.543491 -0.814861,0.09293 -4.62645,0.169869 -5.42254,0.109462 z"
       style="opacity:1;fill:#ffeeaa;stroke-width:0.0625" />
    <text
       id="text145"
       y="6.9677043"
       x="3.0033765"
       style="font-style:normal;font-variant:normal;font-weight:normal;font-stretch:normal;font-size:2.11667px;line-height:1.25;font-family:TSCu_Comic;-inkscape-font-specification:TSCu_Comic;fill:#000000;fill-opacity:1;stroke:none;stroke-width:0.264583"
       xml:space="preserve"><tspan
         style="font-style:normal;font-variant:normal;font-weight:normal;font-stretch:normal;font-size:2.11667px;font-family:TSCu_Comic;-inkscape-font-specification:TSCu_Comic;stroke-width:0.264583"
         y="6.9677043"
         x="3.0033765"
         id="tspan143">JEM</tspan></text>
    <path
       transform="scale(0.26458333)"
       id="path197"
       d="m 19.007411,6.2525231 v -0.359375 h -0.546875 -0.546875 v 0.34375 0.34375 l -0.148437,-6.88e-5 c -0.220373,-1.031e-4 -1.31543,-0.059729 -1.46875,-0.079973 L 16.163661,6.4830685 V 6.1881083 5.8931481 h -0.546875 -0.546875 v 0.2492187 0.2492188 l -0.08594,-0.014527 c -0.04727,-0.00799 -0.289844,-0.042778 -0.539063,-0.077307 -0.249219,-0.034529 -0.516406,-0.073667 -0.59375,-0.086973 l -0.140625,-0.024192 -0.0096,-0.1491265 -0.0096,-0.1491266 -0.625015,0.00483 c -0.343758,0.00266 -0.633586,-0.00374 -0.644063,-0.014218 -0.01048,-0.010477 3.122748,-0.015856 6.962721,-0.011952 3.839974,0.0039 6.711068,0.011238 6.380209,0.0163 l -0.601563,0.0092 v 0.1345486 0.1345486 l -0.195312,0.035947 c -0.298933,0.055018 -1.030319,0.1619213 -1.109375,0.1621514 -0.06668,1.94e-4 -0.07031,-0.011888 -0.07031,-0.2341704 V 5.8931437 H 23.24175 22.694875 v 0.2925595 0.2925595 l -0.195312,0.018999 c -0.107422,0.010449 -0.37461,0.028509 -0.59375,0.040132 l -0.398438,0.021133 V 6.2258395 5.8931481 h -0.5625 -0.5625 v 0.359375 0.359375 h -0.6875 -0.6875 z"
       style="opacity:1;fill:#37c8ab;stroke-width:0.03125" />
    <path
       transform="scale(0.26458333)"
       id="path199"
       d="M 18.007411,4.3431637 C 15.49384,4.2629211 13.396289,4.0428164 11.945287,3.7070399 11.522827,3.6092784 10.954027,3.4326672 10.7975,3.3506547 l -0.08353,-0.043766 0.123284,-0.062564 c 0.425851,-0.2161124 1.662509,-0.4988463 2.888908,-0.6604839 1.758422,-0.2317574 3.342478,-0.3225365 5.625,-0.3223578 2.733763,2.141e-4 4.809539,0.1492083 6.65625,0.4777695 0.760077,0.1352306 1.605665,0.361331 1.888909,0.5050722 l 0.123283,0.062564 -0.08353,0.043766 C 27.78496,3.4298306 27.217845,3.6061029 26.801415,3.7033324 25.556174,3.994075 23.88923,4.19383 21.819911,4.3002808 c -0.62707,0.032258 -3.228674,0.061521 -3.8125,0.042883 z"
       style="opacity:1;fill:#37c8ab;stroke-width:0.03125" />
    <path
       transform="scale(0.26458333)"
       id="path201"
       d=""
       style="opacity:1;fill:#37c8ab;stroke-width:0.0110485" />
    <path
       transform="scale(0.26458333)"
       id="path203"
       d="m 12.432301,5.9003883 c -0.07292,-0.022533 -0.140041,-0.043996 -0.149156,-0.047697 -0.0091,-0.0037 3.185295,-0.00667 7.09869,-0.00659 l 7.115262,1.339e-4 -0.110486,0.035451 c -0.07793,0.025005 -0.111481,0.031518 -0.113863,0.022102 -0.0025,-0.00974 -0.05523,-0.018391 -0.250293,-0.012168 -0.440428,0.01405 -13.26404,-0.028499 -13.440999,-0.018547 l -0.160204,0.00901 0.08563,0.010397 c 0.07212,0.00876 0.08563,0.013614 0.08563,0.030788 0,0.026163 -0.0028,0.025764 -0.160204,-0.022875 z"
       style="opacity:1;fill:#37c8ab;stroke-width:0.0110485" />
  </g>
</svg>
